<!DOCTYPE svg PUBLIC "-//W3C//DTD SVG 1.1//EN" "http://www.w3.org/Graphics/SVG/1.1/DTD/svg11.dtd">

<!-- Uploaded to: SVG Repo, www.svgrepo.com, Transformed by: SVG Repo Mixer Tools -->
<svg width="50px" height="50px" viewBox="-2.4 -2.4 28.80 28.80" xmlns="http://www.w3.org/2000/svg" fill="#000000">

<g id="SVGRepo_bgCarrier" stroke-width="0" transform="translate(1.08,1.08), scale(0.91)">

<path transform="translate(-2.4, -2.4), scale(0.8999999999999999)" d="M16,28.39189975117059C18.626219764735946,29.09571700545674,21.513255656975954,30.984247210703455,23.91015793569386,29.700795440515915C26.288278522233597,28.427400565967055,25.91057342183927,24.83253911392714,27.135653585888324,22.429172595415046C28.282528125750375,20.179230141912026,30.76416854667032,18.52204743652365,30.89393365054446,16C31.024348325631728,13.465327833375643,29.46444372310863,11.108263160504402,27.81749974489348,9.177163341137419C26.315430158798247,7.415933848966905,24.18137756999282,6.394763816927362,22.01244432128528,5.58614095785493C20.084549200850034,4.867382063266032,18.027627456729327,5.120814661159702,16,4.7713567371315815C13.49688700451274,4.33994974068965,11.020803722967475,2.350526667793941,8.65879737476216,3.2846640644300287C6.33574355147359,4.203396333029192,5.814841479806989,7.238706887288565,4.457812991731322,9.336115223739071C3.023626090009136,11.55277875743233,0.31039009853810096,13.362631197500377,0.43194292770589016,15.999999999999996C0.5541865541708267,18.652357242117354,3.202637418620604,20.41726871543875,5.056150852356225,22.318434251362778C6.559460509294153,23.860392597913297,8.326714021641692,24.984133788533367,10.209685387089843,26.029119101368895C12.064012647419391,27.058207906324636,13.951543140433996,27.842920834104092,16,28.39189975117059" fill="#51b2d2" strokewidth="0"/>

</g>

<g id="SVGRepo_tracerCarrier" stroke-linecap="round" stroke-linejoin="round"/>

<g id="SVGRepo_iconCarrier"> <g> <path fill="none" d="M0 0h24v24H0z"/> <path d="M4 18h2v2h12V4H6v2H4V3a1 1 0 0 1 1-1h14a1 1 0 0 1 1 1v18a1 1 0 0 1-1 1H5a1 1 0 0 1-1-1v-3zm2-7h7v2H6v3l-5-4 5-4v3z"/> </g> </g>

</svg>